<svg width="31" height="31" viewBox="0 0 31 31" fill="none" xmlns="http://www.w3.org/2000/svg">
<g clip-path="url(#clip0_94_16583)">
<path d="M30.1039 22.6648V6.9408C30.2198 5.52283 28.9143 4.59564 27.7247 4.19006C24.5648 3.07203 21.1222 3.04133 17.8294 3.46057V0.488281H15.7911L0.111328 3.22197V27.0757L15.7058 29.8026H17.8294V26.1315C21.1119 26.5985 24.5171 26.4723 27.6803 25.4225C28.8836 25.0203 30.2232 24.0999 30.1039 22.6649M10.4497 20.572L9.79523 18.0189L6.6593 17.9303L6.04576 20.347L4.0483 20.2038L7.06834 9.44961L9.451 9.27576L12.8051 20.7526L10.4497 20.572ZM17.8294 4.4968C20.8733 4.07756 24.0433 4.09121 27.0021 4.99449C27.8167 5.29783 28.9075 5.66258 29.0915 6.634C28.9552 7.42824 28.1269 7.78613 27.4724 8.07248C24.3808 9.11551 21.0369 9.21435 17.8294 8.73031V4.4968ZM17.8294 15.2681C20.1507 15.5646 22.5094 15.5578 24.8307 15.2511C26.3271 15.0295 27.8815 14.7057 29.0882 13.7342C29.02 15.1965 29.1938 16.6725 28.9927 18.1245C28.3962 18.854 27.4281 19.113 26.5589 19.3619C23.7059 20.0402 20.7267 20.0572 17.8294 19.6891V15.2681ZM28.9859 23.5852C28.0212 24.6351 26.4908 24.8294 25.1648 25.0987C22.7344 25.4702 20.2495 25.477 17.8158 25.126L17.8294 20.722C20.1473 21.0185 22.4992 21.0117 24.8171 20.7049C26.3169 20.4868 27.8746 20.1595 29.0881 19.1881C29.0166 20.6504 29.2006 22.1332 28.9859 23.5852ZM28.9859 12.681C28.3757 13.407 27.4077 13.6661 26.5351 13.915C23.6889 14.5865 20.7199 14.6035 17.8294 14.232V9.81435C20.1439 10.1075 22.4958 10.1041 24.8103 9.8007C26.3101 9.57916 27.8746 9.25531 29.0881 8.28043C29.0131 9.74615 29.204 11.2289 28.9859 12.681ZM7.08539 16.0896C7.08539 16.0896 7.94098 12.9367 8.16938 11.3176C8.47611 12.9332 8.9499 14.508 9.3385 16.1033L7.08539 16.0896Z" fill="#B13939"/>
</g>
<defs>
<clipPath id="clip0_94_16583">
<rect width="30" height="30" fill="white" transform="translate(0.111328 0.144531)"/>
</clipPath>
</defs>
</svg>
