<svg width="36" height="31" viewBox="0 0 36 31" fill="none" xmlns="http://www.w3.org/2000/svg">
<path d="M34.9481 1.00524C34.853 0.901945 34.7321 0.848814 34.609 0.856136C34.271 0.856136 33.8344 1.15795 33.5992 1.31966L33.5062 1.38268C33.112 1.63419 32.6828 1.77639 32.2451 1.80046C31.7979 1.81907 31.3513 1.85992 30.9064 1.92292C27.9232 2.32665 26.5924 5.33863 25.3108 8.25085C24.613 9.83518 23.8922 11.4811 22.904 12.7384C22.6996 12.9996 22.4829 13.2421 22.2537 13.4659C21.2311 14.4671 19.9473 15.1821 18.9484 15.6881C17.9865 16.1725 16.9362 16.6075 15.9226 17.0286C14.9929 17.4139 14.1154 17.7784 13.3085 18.1731C12.9953 18.3249 12.6801 18.4696 12.3627 18.6071C11.6277 18.9212 11.0978 19.1618 10.3234 19.8641C10.0458 20.1124 9.77553 20.3747 9.5132 20.6503C8.89859 21.2965 8.35452 22.0511 7.89636 22.893C7.50243 23.6696 7.04727 24.3893 6.53847 25.0399C6.37496 25.2502 6.08484 25.3539 5.65035 25.3539C5.14175 25.3539 4.52515 25.2156 3.87273 25.0694C3.19953 24.9127 2.5039 24.7633 1.90726 24.7633C1.42301 24.7633 1.05141 24.8677 0.774961 25.0777C0.774961 25.0777 0.30793 25.436 0.111328 25.8996L0.304648 26.0148C0.604405 26.2288 0.881956 26.4928 1.13043 26.8003C1.38964 27.1154 1.67825 27.3858 1.9893 27.6049C2.0891 27.6532 2.17933 27.7288 2.25453 27.8268C2.17359 27.9838 2.05383 28.1866 1.92832 28.403C1.24008 29.5901 0.838125 30.3396 1.06836 30.748C1.17883 30.8236 1.30215 30.8604 1.42656 30.855C2.92773 30.855 3.73437 30.3414 4.75429 29.6906C5.05015 29.5026 5.35093 29.3088 5.70886 29.1089C6.3055 28.7682 6.94781 28.2244 7.62894 27.6488C8.52035 26.8839 9.45222 26.098 10.3568 25.7191C11.1 25.4206 11.8742 25.2773 12.6512 25.2945C13.606 25.2945 14.6109 25.4623 15.5797 25.6258C16.3018 25.749 17.0499 25.8744 17.7836 25.9327C18.0518 25.9542 18.3204 25.9652 18.5891 25.9658C18.9323 25.9673 19.2752 25.9437 19.6164 25.8952L19.6985 25.8574C20.2133 25.4404 20.4545 24.5465 20.6878 23.6821C20.8384 23.1253 20.965 22.6258 21.1655 22.3085C21.1773 22.2931 21.1901 22.279 21.2037 22.2663C21.2131 22.2595 21.2239 22.257 21.2345 22.2592C21.245 22.2614 21.2547 22.2682 21.262 22.2786V22.3038C21.143 25.6846 20.1094 27.8314 19.0641 29.7395L18.3663 30.7249C18.3663 30.7249 19.3433 30.7249 19.8994 30.4419C21.9283 29.6434 23.459 27.8833 24.5733 25.0759C24.848 24.355 25.0938 23.6157 25.3097 22.8609C25.3288 22.799 25.5044 22.6823 25.4874 23.0075C25.4817 23.1037 25.4765 23.2103 25.4707 23.3223C25.4707 23.3878 25.4707 23.4556 25.4612 23.5233C25.4327 23.9951 25.348 24.9913 25.348 24.9913L25.9741 24.5493C27.4849 23.2924 28.6494 20.7558 29.5329 16.8092C29.9004 15.1648 30.17 13.5318 30.4071 12.0937C30.6912 10.3646 30.9362 8.88293 31.2165 8.30776C31.6567 7.40521 32.3285 6.7951 32.9788 6.20301C33.0671 6.12305 33.1565 6.04562 33.244 5.96062C34.061 5.20502 34.8737 4.33272 35.0531 2.7059V2.66988C35.1827 1.45616 35.073 1.14678 34.9481 1.00524Z" fill="#003545"/>
</svg>
