<svg width="31" height="31" viewBox="0 0 31 31" fill="none" xmlns="http://www.w3.org/2000/svg">
<g clip-path="url(#clip0_94_16575)">
<path d="M30.1067 18.8213C29.9268 18.293 29.4556 17.9251 28.8463 17.8368C28.5589 17.7952 28.2299 17.8129 27.8404 17.8908C27.1617 18.0266 26.6581 18.0783 26.2906 18.0883C27.6778 15.8172 28.8057 13.2275 29.455 10.7896C30.505 6.8477 29.944 5.05191 29.2883 4.23963C27.5531 2.08963 25.0215 0.934634 21.9674 0.899293C20.3381 0.879975 18.9078 1.19191 18.1617 1.41622C17.467 1.29736 16.72 1.231 15.9363 1.21872C14.4671 1.196 13.169 1.50657 12.0599 2.14486C11.4458 1.9435 10.4602 1.65963 9.32212 1.4785C6.64532 1.05236 4.4879 1.38441 2.90985 2.46543C0.998994 3.77429 0.113174 6.04838 0.277002 9.22452C0.329033 10.2329 0.910752 13.3011 1.82669 16.2109C2.3531 17.8834 2.91442 19.2722 3.49509 20.3393C4.31856 21.8524 5.1997 22.7434 6.18888 23.0634C6.74329 23.2425 7.75064 23.3679 8.81013 22.5122C8.94442 22.67 9.1236 22.8267 9.36138 22.9722C9.66337 23.1569 10.0326 23.3078 10.4014 23.3972C11.7304 23.7194 12.9753 23.6388 14.0374 23.1872C14.044 23.3704 14.049 23.5454 14.0532 23.6966C14.0602 23.9417 14.0673 24.182 14.0765 24.4068C14.1395 25.9266 14.2461 27.1083 14.562 27.9351C14.5794 27.9805 14.6027 28.0499 14.6273 28.1234C14.7849 28.5913 15.0485 29.3747 15.719 29.9883C16.4134 30.6238 17.2533 30.8187 18.0225 30.8187C18.4083 30.8187 18.7763 30.7696 19.0992 30.7026C20.25 30.4634 21.557 30.0991 22.5024 28.7936C23.3963 27.5595 23.8309 25.7008 23.9095 22.772C23.9197 22.6891 23.9292 22.6101 23.9381 22.5347L23.9568 22.38L24.1674 22.3979L24.2217 22.4015C25.3938 22.4533 26.827 22.2122 27.7072 21.8158C28.4027 21.5028 30.6315 20.3618 30.1067 18.8213Z" fill="black"/>
<path d="M28.1024 19.1186C24.6173 19.8158 24.3776 18.6716 24.3776 18.6716C28.0573 13.3769 29.5956 6.65614 28.2682 5.01125C24.6467 0.524318 18.3777 2.64636 18.2731 2.70136L18.2394 2.70727C17.5508 2.56864 16.7803 2.48614 15.9142 2.47239C14.3373 2.44739 13.1411 2.8733 12.2333 3.5408C12.2333 3.5408 1.05014 -0.926706 1.57034 9.15943C1.68096 11.3051 4.7419 25.395 8.39276 21.1392C9.72717 19.583 11.0166 18.2672 11.0166 18.2672C11.6569 18.6797 12.4235 18.8901 13.2272 18.8145L13.2897 18.7632C13.2702 18.9564 13.2791 19.1453 13.3146 19.3691C12.3741 20.3881 12.6505 20.5669 10.7704 20.9423C8.86784 21.3225 9.98545 21.9993 10.7152 22.1764C11.5998 22.3908 13.6464 22.6947 15.0292 20.8175L14.9741 21.0317C15.3426 21.318 15.6013 22.8934 15.558 24.3217C15.5146 25.7499 15.4856 26.7305 15.7759 27.4964C16.0664 28.2623 16.3558 29.9856 18.8275 29.472C20.8927 29.0428 21.963 27.9307 22.1119 26.0755C22.2175 24.7566 22.4567 24.9516 22.4717 23.7724L22.6635 23.2142C22.8846 21.4264 22.6987 20.8495 23.971 21.1178L24.2803 21.1442C25.2167 21.1855 26.4424 20.9981 27.1619 20.6739C28.7108 19.9768 29.6296 18.8128 28.1022 19.1186H28.1024Z" fill="#336791"/>
<path d="M12.8887 10.1208C12.5746 10.0784 12.2902 10.1176 12.1463 10.2233C12.0655 10.2827 12.0404 10.3516 12.0336 10.3989C12.0155 10.5245 12.1062 10.6634 12.162 10.735C12.3198 10.9377 12.5501 11.077 12.7782 11.1077C12.8112 11.1122 12.8441 11.1144 12.8769 11.1143C13.2571 11.1143 13.603 10.8271 13.6334 10.6152C13.6715 10.3497 13.2741 10.1727 12.8887 10.1208ZM23.2931 10.1292C23.2631 9.9211 22.8813 9.86178 22.5189 9.91064C22.1571 9.95951 21.8062 10.1179 21.8355 10.3264C21.8589 10.4886 22.1609 10.7654 22.5184 10.7654C22.5486 10.7654 22.5791 10.7634 22.6098 10.7593C22.8484 10.7272 23.0234 10.5803 23.1066 10.4956C23.2332 10.3666 23.3066 10.2227 23.2931 10.1292Z" fill="white"/>
<path d="M29.2616 19.0389C29.1287 18.6492 28.701 18.5239 27.9903 18.6662C25.8804 19.0884 25.1247 18.7959 24.8767 18.6188C26.5167 16.1961 27.8659 13.2674 28.5937 10.535C28.9385 9.24071 29.1289 8.03866 29.1445 7.05889C29.1617 5.98355 28.9728 5.19332 28.5833 4.7106C27.0128 2.76457 24.7077 1.72071 21.9174 1.69207C19.9992 1.67117 18.3785 2.14719 18.0643 2.28105C17.4027 2.12151 16.6814 2.02355 15.8961 2.01105C14.4561 1.98844 13.2113 2.32276 12.1808 3.00423C11.7331 2.84264 10.5763 2.45753 9.16146 2.23651C6.71553 1.85469 4.77185 2.14401 3.38482 3.09685C1.72978 4.23389 0.96572 6.26639 1.11373 9.13775C1.16353 10.1038 1.73119 13.0756 2.62697 15.9216C3.80611 19.6675 5.08791 21.7881 6.4365 22.2243C6.59435 22.2754 6.77635 22.3111 6.97709 22.3111C7.46904 22.3111 8.07221 22.0961 8.69974 21.3645C9.46517 20.4741 10.2569 19.6053 11.0741 18.7592C11.6042 19.0351 12.1867 19.1892 12.7823 19.2047C12.7836 19.2198 12.7849 19.2349 12.7864 19.2499C12.6839 19.3685 12.5835 19.4888 12.4853 19.6107C12.0725 20.1188 11.9866 20.2246 10.6581 20.4898C10.2801 20.5655 9.27642 20.766 9.26166 21.4483C9.24572 22.1938 10.4482 22.5068 10.5852 22.54C11.0626 22.6559 11.5226 22.7131 11.9612 22.7131C13.0279 22.7131 13.9667 22.3731 14.717 21.7153C14.6939 24.3728 14.8081 26.9914 15.1372 27.7892C15.4067 28.4424 16.0651 30.0387 18.1447 30.0385C18.4499 30.0385 18.7857 30.0041 19.1552 29.9273C21.3256 29.4762 22.2682 28.5459 22.6328 26.4951C22.8279 25.3991 23.1627 22.782 23.3202 21.3781C23.6525 21.4787 24.0804 21.5247 24.5429 21.5246C25.5076 21.5246 26.6208 21.3258 27.3188 21.0116C28.1031 20.6584 29.5182 19.7918 29.2616 19.0389ZM24.0929 9.55253C24.0858 9.96696 24.0269 10.3432 23.9646 10.7359C23.8974 11.1583 23.8281 11.595 23.8106 12.1251C23.7934 12.6411 23.8598 13.1774 23.924 13.6962C24.0539 14.7439 24.1871 15.8225 23.6714 16.8868C23.5858 16.7396 23.5095 16.5875 23.4429 16.4313C23.3788 16.2806 23.2395 16.0386 23.0468 15.7036C22.2969 14.3995 20.5408 11.3456 21.4398 10.0995C21.7076 9.72855 22.3871 9.34719 24.0929 9.55253ZM22.0253 2.53128C24.5253 2.5848 26.503 3.49173 27.9031 5.22673C28.977 6.55753 27.7945 12.6129 24.3711 17.8368C24.3367 17.7944 24.3021 17.7521 24.2673 17.7099L24.2239 17.6574C25.1086 16.2407 24.9356 14.839 24.7816 13.5963C24.7183 13.0863 24.6586 12.6046 24.6738 12.1521C24.6895 11.6725 24.7549 11.2612 24.8182 10.8634C24.8959 10.3733 24.975 9.86616 24.9532 9.26832C24.9695 9.2056 24.976 9.13151 24.9675 9.04355C24.9118 8.47026 24.2368 6.75446 22.861 5.20151C22.1085 4.35207 21.011 3.40151 19.5125 2.76037C20.157 2.63082 21.0384 2.51003 22.0253 2.53128ZM8.03564 20.829C7.34424 21.6351 6.86681 21.4806 6.70978 21.4299C5.68674 21.099 4.49963 19.0022 3.45303 15.6772C2.5474 12.8001 2.01818 9.90707 1.97623 9.09582C1.84404 6.53014 2.48541 4.74207 3.88263 3.78116C6.15654 2.21753 9.89506 3.15344 11.3973 3.6281C11.3757 3.64878 11.3532 3.6681 11.3319 3.68912C8.86674 6.10321 8.92521 10.2278 8.93131 10.4799C8.93107 10.5772 8.93951 10.7149 8.95099 10.9043C8.99342 11.5981 9.0724 12.8892 8.86146 14.3514C8.66553 15.7101 9.09748 17.04 10.0463 18.0001C10.1437 18.0985 10.246 18.1921 10.353 18.2806C9.93068 18.7192 9.01275 19.6892 8.03564 20.829ZM10.6699 17.4207C9.90513 16.6468 9.55779 15.5705 9.71681 14.4673C9.93947 12.9228 9.85732 11.5775 9.81314 10.8548C9.80693 10.7537 9.80142 10.665 9.79826 10.5951C10.1584 10.2855 11.8272 9.41844 13.0174 9.68287C13.5604 9.80344 13.8914 10.1621 14.029 10.7789C14.741 13.9724 14.1232 15.3034 13.6268 16.3731C13.5245 16.5934 13.4278 16.8017 13.3453 17.0172L13.2813 17.1838C13.1194 17.6049 12.9687 17.9965 12.8753 18.3683C12.0622 18.366 11.2713 18.0293 10.6699 17.4207ZM10.7947 21.7274C10.5573 21.6699 10.3438 21.57 10.2185 21.4872C10.3231 21.4395 10.5094 21.3745 10.8323 21.3099C12.3953 20.998 12.6367 20.7778 13.1638 20.1288C13.2846 19.9799 13.4216 19.8113 13.6113 19.6058C13.8938 19.299 14.0233 19.3508 14.2577 19.4451C14.4477 19.5213 14.6327 19.7522 14.7077 20.0063C14.7432 20.1263 14.7831 20.354 14.6526 20.5313C13.5515 22.0263 11.947 22.0071 10.7947 21.7274ZM18.9743 29.1083C17.0622 29.5056 16.3853 28.5596 15.9391 27.4781C15.6512 26.7799 15.5096 23.6315 15.6101 20.1546C15.6113 20.1083 15.6045 20.0637 15.5914 20.0216C15.5797 19.9386 15.5618 19.8565 15.538 19.7759C15.3887 19.27 15.0248 18.8468 14.5883 18.6714C14.4149 18.6017 14.0966 18.4739 13.7141 18.5688C13.7956 18.2429 13.9371 17.8748 14.0905 17.4763L14.1548 17.3087C14.2272 17.1197 14.3182 16.9239 14.4143 16.7166C14.9338 15.5975 15.6452 14.0647 14.8731 10.6018C14.5838 9.3048 13.618 8.67139 12.1538 8.81855C11.2761 8.90662 10.473 9.25003 10.0725 9.44696C9.98635 9.48923 9.9076 9.53014 9.834 9.56991C9.9458 8.2631 10.3681 5.82082 11.9481 4.2756C12.9429 3.30287 14.2677 2.82242 15.8818 2.84832C19.0623 2.89878 21.1018 4.48151 22.2528 5.80048C23.2447 6.93696 23.7818 8.08185 23.9961 8.69935C22.3842 8.54037 21.2879 8.84889 20.7322 9.61935C19.5232 11.2953 21.3936 14.548 22.2926 16.1113C22.4574 16.3978 22.5997 16.6454 22.6445 16.7506C22.9372 17.4386 23.3162 17.8979 23.5929 18.2331C23.6777 18.3358 23.76 18.4355 23.8226 18.5225C23.3344 18.659 22.4574 18.9743 22.5374 20.5506C22.4729 21.3415 22.0146 25.0445 21.7817 26.3528C21.4744 28.0812 20.8185 28.7248 18.9743 29.1083ZM26.9552 20.2521C26.456 20.4767 25.6206 20.6453 24.827 20.6815C23.9504 20.7213 23.5042 20.5863 23.3992 20.5032C23.3499 19.5209 23.7269 19.4183 24.126 19.3097C24.1886 19.2926 24.2498 19.2759 24.3089 19.2559C24.3455 19.285 24.3858 19.3136 24.4298 19.3418C25.1344 19.7928 26.391 19.8414 28.1651 19.4863L28.1845 19.4825C27.9452 19.6995 27.5358 19.9906 26.9552 20.2521Z" fill="white"/>
</g>
<defs>
<clipPath id="clip0_94_16575">
<rect width="30" height="30" fill="white" transform="translate(0.222656 0.855469)"/>
</clipPath>
</defs>
</svg>
