<svg width="36" height="30" viewBox="0 0 36 30" fill="none" xmlns="http://www.w3.org/2000/svg">
<g clip-path="url(#clip0_94_16592)">
<path d="M10.5626 0.00390625V0.004375C10.4461 -0.00921875 8.56489 0.571562 7.35192 0.994141C5.71458 1.56602 4.44364 2.11117 3.65942 2.5832C3.40622 2.73719 3.09778 2.99336 2.98267 3.13867L2.98075 3.13375C2.97337 3.14485 2.96706 3.15645 2.96188 3.16844C2.95587 3.17781 2.94767 3.18859 2.94384 3.19656C2.92215 3.24598 2.91149 3.29845 2.91239 3.35125L2.92989 3.36531C2.93454 3.41383 2.94766 3.46844 2.97583 3.5282C3.04473 3.67352 3.24599 3.8507 3.47403 4.03211C3.47403 4.03211 5.83134 6.00297 6.11763 6.28445C7.42083 7.57422 7.98794 8.84547 8.04099 10.5984C8.07298 11.7245 7.82333 12.7148 7.20345 13.8637C6.10149 15.9252 3.77591 18.2005 0.189227 20.7252L0.243641 20.7095C0.219032 20.7264 0.186766 20.7503 0.162977 20.7663C-0.26632 21.0569 -0.902335 21.6018 -1.22554 21.947C-1.70788 22.4648 -2.08878 23.0141 -2.25312 23.4365C-2.5446 24.1994 -2.40159 24.9712 -1.84023 25.6841C-1.11944 26.5923 0.316376 27.5193 1.99063 28.15C2.84376 28.4727 4.27876 28.8859 5.35993 29.1173C7.15559 29.508 10.6318 29.9303 12.544 29.9936C12.9306 30.0074 13.4496 30.0074 13.4709 29.9936C13.5133 29.9709 13.8102 29.4855 14.1548 28.8817C15.3306 26.8244 16.1779 24.8943 16.6392 23.2457C16.9146 22.2468 17.1317 20.916 17.2747 19.3403C17.3119 18.8997 17.3277 17.4238 17.296 16.9244C17.2482 16.1071 17.164 15.4441 17.0313 14.7948C17.0212 14.7505 17.0148 14.7056 17.0122 14.6605C21.2718 13.5759 25.9722 12.5931 29.0946 12.1837L29.5769 12.1202L29.5025 12.0198C29.0787 11.4566 28.7875 11.1072 28.4378 10.7348C27.4206 9.6543 26.1866 8.77797 24.6764 8.05141C22.5996 7.05672 19.9134 6.28023 16.5121 5.70344C15.8711 5.59445 14.4627 5.38539 13.3183 5.23563L13.2117 5.0718C12.5863 4.12727 11.8978 2.95609 11.495 2.16602C11.1828 1.55289 10.8858 0.844375 10.7218 0.335781C10.6315 0.026875 10.6214 0.00859375 10.5626 0.00390625ZM10.4779 0.235469H10.4833C10.4883 0.240156 10.5093 0.367656 10.5306 0.517422C10.6209 1.15305 10.7852 1.76617 11.045 2.42922C11.2408 2.92844 11.2408 2.90148 11.013 2.84242C10.4727 2.71539 8.05165 2.3568 6.29782 2.14773C6.017 2.11609 5.77856 2.08422 5.77856 2.07953C5.75751 2.06125 7.04458 1.48492 7.61141 1.25781C8.33712 0.971875 10.3294 0.258203 10.4779 0.235469ZM5.37059 2.27031L5.57731 2.32938C6.70059 2.65633 9.52411 3.11992 11.0816 3.22891C11.2566 3.2425 11.4048 3.25586 11.4097 3.25586C11.4152 3.26055 11.2675 3.32852 11.0764 3.40562C10.3245 3.72813 9.49731 4.12305 8.92528 4.4275C8.79513 4.49688 8.67591 4.55547 8.61712 4.57937L8.08884 4.50555L7.59009 4.08672C6.94587 3.54894 6.29781 3.01456 5.64595 2.48359L5.37059 2.27031ZM5.15868 2.41141L5.90571 3.21062C6.31368 3.65125 6.72684 4.0825 6.81681 4.17789C6.89638 4.26203 6.95434 4.32367 6.96528 4.34195C6.43618 4.26297 5.86989 4.17602 5.43403 4.09539C5.11602 4.03633 4.50708 3.91375 4.0302 3.77313C3.98099 3.75672 3.92493 3.73891 3.87161 3.7218V3.67375C3.87708 3.36906 4.32716 2.91484 5.08977 2.45195L5.15868 2.41141ZM11.495 3.50031C11.4994 3.49875 11.5031 3.49906 11.506 3.50125C11.527 3.50125 11.553 3.54156 11.6165 3.66414C11.7969 4.00469 12.3588 4.92203 12.4966 5.09922L12.5141 5.12359C11.5129 4.98774 10.5124 4.8479 9.51263 4.70406C9.54494 4.68384 9.57894 4.66566 9.61434 4.64969C10.1708 4.38625 10.7322 4.05039 11.2304 3.69156C11.352 3.60531 11.4631 3.52398 11.4847 3.51039C11.4869 3.50623 11.4905 3.50273 11.495 3.50031ZM4.34794 4.26789C4.35313 4.26367 4.4379 4.29133 4.54919 4.32297C4.80298 4.39589 5.0592 4.4624 5.31755 4.52242C5.55003 4.57724 5.7831 4.63021 6.01673 4.68133C6.33446 4.7493 6.5997 4.81328 6.60462 4.81328C6.64208 4.84516 7.1772 6.31187 7.35739 6.87508C7.4263 7.08836 7.47934 7.27 7.47415 7.27C7.46868 7.27469 7.41016 7.19734 7.34126 7.09281C6.72138 6.15766 5.74138 5.20844 4.60743 4.44508C4.45923 4.35437 4.34766 4.27258 4.34766 4.26789H4.34794ZM6.94915 4.88148C6.94915 4.89039 6.94915 4.88617 6.95462 4.88617C6.98142 4.88617 7.0979 4.89953 7.24091 4.92672C8.14134 5.09922 9.75735 5.36266 10.7901 5.51266C10.9651 5.53539 11.1027 5.56281 11.1027 5.57172C11.1027 5.58109 11.0398 5.61273 10.9599 5.64906C10.7849 5.72641 10.0803 6.085 9.84704 6.22094C9.25915 6.55727 8.7295 6.92008 8.34805 7.24703C8.25349 7.32809 8.15805 7.40841 8.06177 7.48797C8.06177 7.48797 8.03032 7.41062 8.00352 7.31523C7.81294 6.68383 7.41563 5.74867 7.05497 5.09008C6.99673 4.98578 6.94915 4.89039 6.94915 4.88148ZM11.5429 5.635C11.5743 5.64437 11.6277 5.79883 11.7335 6.13937C11.9322 6.81884 12.0178 7.51897 11.9878 8.21898C11.9768 8.40977 11.9662 8.58695 11.9555 8.60992L11.9399 8.65469L11.6646 8.57734C11.0977 8.42313 10.176 8.1918 9.38684 8.00102C8.93622 7.89648 8.57063 7.80133 8.57063 7.79242C8.57063 7.765 9.2277 7.2018 9.50852 6.98852C10.0434 6.58422 11.4948 5.62164 11.5429 5.635ZM11.9079 5.6807C11.9238 5.66711 14.102 5.98914 15.0927 6.15273C15.8293 6.27531 16.8993 6.46633 16.963 6.48906C16.9944 6.49844 16.8834 6.55211 16.5282 6.68875C15.1296 7.22898 14.0908 7.71531 13.0577 8.30547C12.7876 8.46016 12.5595 8.58695 12.5546 8.58695C12.5491 8.58695 12.544 8.45523 12.544 8.29633C12.544 7.43359 12.3433 6.56172 11.9722 5.82602C11.935 5.75336 11.9027 5.68516 11.9079 5.6807ZM17.5397 6.63414C17.5555 6.6475 17.4869 7.01594 17.4232 7.23391C17.2323 7.91055 16.7188 8.91438 16.0888 9.85891C15.977 10.0267 15.8761 10.1629 15.8654 10.1673C15.8547 10.1718 15.7128 10.1034 15.5482 10.0216C14.9338 9.71266 14.2341 9.42273 13.4712 9.15016C13.2593 9.07281 13.0736 9.0093 13.0684 8.99992C13.0312 8.97297 14.7375 8.0057 15.6379 7.54234C16.3535 7.16992 17.5189 6.61609 17.5397 6.63414ZM17.943 6.68875C17.9906 6.68875 18.9547 6.91563 19.4578 7.04289C20.7031 7.3607 22.1331 7.81047 23.0656 8.17375L23.4522 8.32328L23.1826 8.37789C20.9049 8.82742 18.9544 9.34562 17.0734 9.9993C16.9198 10.0539 16.782 10.0989 16.7716 10.0989C16.7612 10.0989 16.8145 9.99484 16.8834 9.86781C17.4502 8.8368 17.8153 7.76055 17.9055 6.84297C17.9107 6.75672 17.9271 6.68875 17.943 6.68875ZM8.34259 8.57781C8.35845 8.56422 9.09481 8.71422 9.49239 8.80961C10.0967 8.95492 11.3788 9.32289 11.3788 9.34961C11.3788 9.3543 11.2353 9.45883 11.0658 9.58586C10.3718 10.0809 9.70403 10.6033 8.90395 11.2663C8.66579 11.4616 8.46481 11.6202 8.45415 11.6202C8.44321 11.6202 8.43802 11.5933 8.44321 11.557C8.56489 10.7941 8.53892 9.8132 8.36938 8.81875C8.35298 8.69148 8.33739 8.58227 8.34259 8.57781ZM23.8181 8.59164C23.8284 8.60078 23.479 9.07258 23.2561 9.34047C22.9384 9.73117 22.4722 10.2491 21.4181 11.3842C20.9536 11.884 20.4909 12.385 20.0301 12.8873C19.8182 13.1144 19.6432 13.3052 19.6375 13.3052C19.6325 13.3052 19.5636 13.2231 19.4895 13.1235C18.8962 12.3604 18.1861 11.6931 17.3436 11.0938C17.2154 11.0006 17.0849 10.9097 16.9523 10.821C16.8938 10.7847 16.8457 10.7484 16.8457 10.7437C16.8457 10.7303 17.7464 10.3987 18.43 10.1627C19.6276 9.74477 21.2587 9.24555 22.4829 8.92281C23.1238 8.75055 23.8074 8.5825 23.8181 8.59164ZM24.226 8.68234C24.2471 8.67766 24.3745 8.7325 24.5279 8.80961C25.8155 9.44078 27.0763 10.2538 28.0725 11.0891C28.3533 11.3254 29.047 11.9425 29.0363 11.947C29.0363 11.947 28.7927 11.9657 28.5067 11.9837C26.2763 12.1291 23.4208 12.5329 20.6768 13.1005C20.4909 13.1369 20.3268 13.1687 20.3161 13.1687C20.3055 13.1687 20.5119 12.9916 20.7717 12.7783C22.3822 11.4477 23.1186 10.6077 23.9873 9.10891C24.1093 8.88672 24.2154 8.69594 24.226 8.68234ZM12.4277 9.71781C12.5016 9.73141 13.1901 10.0082 13.7093 10.2309C14.1862 10.435 14.9018 10.762 14.9387 10.7894C14.9442 10.7938 14.6899 10.9073 14.3771 11.0392C13.4431 11.4373 12.5291 11.8691 11.6378 12.3334C11.3835 12.4652 11.1718 12.5741 11.1666 12.5741C11.1453 12.5741 11.1508 12.5559 11.2938 12.3334C11.7707 11.5888 12.1524 10.6987 12.3695 9.83125C12.3906 9.76328 12.4119 9.71781 12.4277 9.71781ZM11.7387 9.82656C11.7545 9.84016 11.5746 10.3989 11.4631 10.7031C11.2457 11.2797 10.8804 12.0016 10.5252 12.5467C10.4404 12.6737 10.3133 12.8603 10.2443 12.9646L10.112 13.146L9.81559 12.9011C9.47106 12.6152 9.19024 12.4375 8.83013 12.2784C8.68684 12.2151 8.57583 12.1607 8.57583 12.1518C8.57583 12.1152 9.482 11.4114 10.176 10.9028C10.6736 10.5348 11.7228 9.81297 11.7387 9.82656ZM15.9507 11.3116L16.2105 11.4569C16.8038 11.7883 17.5027 12.2291 18.0379 12.6147C18.3397 12.828 18.9224 13.278 19.0392 13.3867L19.1029 13.4458L18.6736 13.5505C16.2471 14.1271 14.3716 14.6402 12.1836 15.3304C11.9397 15.4077 11.7332 15.471 11.7174 15.471C11.6856 15.471 11.6591 15.4935 12.2049 15.062C13.6035 13.9588 14.8436 12.7422 15.7656 11.557L15.9507 11.3116ZM14.8433 11.5478C14.8542 11.5572 14.1285 12.433 13.694 12.928C13.1745 13.5184 12.2525 14.5084 11.6165 15.1532C11.3518 15.4213 11.1243 15.6435 11.1133 15.648C11.0975 15.6527 11.092 15.5847 11.092 15.4802C11.092 14.9308 10.9282 14.3448 10.6422 13.8454C10.5202 13.6366 10.4992 13.5866 10.526 13.5639C10.6266 13.4866 12.1677 12.733 13.1422 12.2835C13.7996 11.9835 14.8277 11.5389 14.8433 11.5478ZM8.1468 12.9555C8.16239 12.9555 8.28407 13.0101 8.42216 13.0736C8.74455 13.2242 9.04961 13.4006 9.33325 13.6005C9.34419 13.6094 9.20638 13.705 9.02618 13.8184C8.52306 14.1271 7.76016 14.6223 7.31501 14.9266C6.8488 15.2444 6.83294 15.2533 6.88571 15.1853C7.23571 14.7266 7.41071 14.4677 7.5961 14.136C7.76666 13.8276 7.91523 13.5106 8.04099 13.1868C8.08337 13.0555 8.13614 12.9555 8.1468 12.9555ZM9.93235 14.1538C9.95888 14.1496 9.99059 14.1906 10.1333 14.3723C10.4352 14.7583 10.6684 15.2762 10.7267 15.6939L10.7374 15.7844L10.0116 16.0253C8.71364 16.4566 7.51626 16.8836 6.70579 17.2019C6.40959 17.3207 6.11454 17.4417 5.82067 17.5647C5.56091 17.6781 5.34927 17.7646 5.34927 17.7602C5.34927 17.7557 5.51333 17.6512 5.71458 17.5239C7.29888 16.5386 8.67126 15.4577 9.69911 14.377C9.8104 14.2635 9.91102 14.159 9.92142 14.1543L9.93235 14.1538ZM9.11122 14.3266V14.327C9.13255 14.3451 8.52825 14.9308 8.11509 15.2896C7.09243 16.184 6.08044 16.8836 4.82481 17.5647C4.66567 17.6509 4.52294 17.728 4.50708 17.737C4.47016 17.7552 4.51747 17.7098 5.06872 17.1967C5.3918 16.8996 5.69769 16.5891 5.98528 16.2663C6.18653 16.0436 6.22345 16.0117 6.51493 15.835C7.29423 15.3531 9.09016 14.3085 9.11122 14.3266ZM16.2135 14.8656C16.2884 15.1134 16.4268 16.3014 16.4645 17.0877C16.4754 17.2741 16.4697 17.3966 16.4588 17.3966C16.4166 17.3966 15.5638 16.9654 14.9549 16.6382C14.4271 16.3534 13.4293 15.7865 13.265 15.6742C14.2428 15.3914 15.2258 15.1219 16.2135 14.8656ZM12.6952 15.8481C12.7646 15.8739 12.8688 15.9231 13.0791 16.0345C14.1704 16.6204 15.6543 17.3287 16.29 17.5649C16.4858 17.6376 16.5069 17.6102 16.0565 17.8738C15.0924 18.4368 13.8898 18.9906 12.4171 19.5491C12.1573 19.649 11.9399 19.7263 11.9347 19.7263C11.9238 19.7263 11.9558 19.6124 11.9982 19.4762C12.3528 18.3454 12.5549 17.2016 12.5656 16.2843C12.5683 16.0553 12.5694 15.9421 12.5762 15.8842L12.6952 15.8481ZM11.8844 16.0954C11.9101 16.207 11.8902 17.1191 11.8497 17.383C11.7549 18.0524 11.592 18.7133 11.363 19.3584C11.3045 19.5264 11.2509 19.6675 11.2405 19.6764C11.2191 19.6991 10.4934 19.0905 10.255 18.8542C9.84212 18.4455 9.51891 18.0372 9.28048 17.6376C9.17001 17.4524 9.0106 17.1208 8.992 17.0474C9.771 16.7764 10.5542 16.5142 11.3414 16.2611C11.5101 16.2067 11.7086 16.1502 11.8844 16.0954ZM8.43829 17.2438C8.45114 17.26 8.48286 17.3205 8.51239 17.3966C8.68192 17.7916 9.06282 18.3728 9.39149 18.7452C9.75188 19.154 10.2236 19.5902 10.6157 19.8761C10.7428 19.9668 10.859 20.0533 10.8752 20.0669C10.9069 20.0943 10.9175 20.0896 10.0538 20.3713C9.05298 20.6983 7.96141 21.0252 6.71099 21.3702C6.41221 21.4528 6.11371 21.5361 5.81548 21.6201C5.76763 21.6337 5.78431 21.6107 5.92184 21.4246C6.54173 20.594 7.48427 18.9637 8.01419 17.8101C8.10442 17.6102 8.19438 17.4102 8.21024 17.3648C8.21763 17.3425 8.22829 17.3296 8.23841 17.3153L8.43829 17.2438ZM7.3418 17.6423C7.30571 17.7337 7.07575 18.1464 6.83813 18.5453C6.32407 19.4038 5.7627 20.2485 5.01048 21.2748C4.88306 21.4518 4.76165 21.6154 4.74524 21.6334C4.71899 21.6653 4.70833 21.6564 4.62329 21.5158C4.44309 21.2111 4.29517 20.8209 4.21532 20.462C4.13602 20.1079 4.15188 19.4903 4.24212 19.1087C4.28313 18.9407 4.30118 18.8774 4.34056 18.8369C5.32829 18.4156 6.32907 18.0172 7.3418 17.642V17.6423ZM16.4962 17.9235V18.1141C16.4962 19.1268 16.3691 20.5164 16.1837 21.5289C16.152 21.7061 16.1254 21.8516 16.1202 21.8563C16.1202 21.8563 15.9663 21.8198 15.7864 21.7743C14.9422 21.5445 14.1261 21.245 13.3495 20.8799C12.8354 20.6392 12.089 20.2438 12.11 20.2258C12.1152 20.2211 12.3375 20.1215 12.5967 20.0031C13.6355 19.5402 14.6314 19.0405 15.4952 18.5453C15.8184 18.3592 16.3054 18.0599 16.4112 17.9781L16.4962 17.9235ZM3.35809 19.2681C3.37833 19.2691 3.37231 19.3063 3.34114 19.4676C3.31472 19.6286 3.29529 19.7905 3.2829 19.9527C3.24052 20.616 3.36766 21.107 3.74911 21.779C3.8552 21.9651 3.93997 22.1195 3.9345 22.124C3.89759 22.1514 0.390204 23.0322 -0.711749 23.2909C-1.04015 23.3683 -1.32616 23.4363 -1.34749 23.4407C-1.38468 23.4501 -1.38987 23.4456 -1.37401 23.3683C-1.25206 22.7008 -0.658429 21.8289 0.168172 21.0932C0.718875 20.6027 1.15856 20.3165 1.91079 19.9487C2.16263 19.8259 2.47571 19.6762 2.74669 19.548C2.94848 19.4539 3.15229 19.3606 3.35809 19.2681ZM11.6216 20.5347H11.6222C11.6277 20.53 11.7543 20.5891 11.9079 20.6659C13.0419 21.2294 14.6207 21.7518 15.9663 22.0197L16.088 22.0422L15.9187 22.1242C15.2143 22.4601 12.8986 23.2867 10.5306 24.0449C10.1861 24.1539 9.84759 24.2629 9.78415 24.2856C9.72044 24.3084 9.66165 24.322 9.66165 24.3173C9.66165 24.3126 9.75735 24.1537 9.87903 23.9584C10.5413 22.8958 11.2088 21.6018 11.5481 20.7027C11.5905 20.6165 11.6162 20.5394 11.6216 20.5347ZM10.7795 20.7705H10.78C10.7855 20.7752 10.7428 20.8708 10.6898 20.9798C10.2288 21.9379 9.62473 22.9825 8.85118 24.1539C8.6554 24.4539 8.49106 24.6944 8.48587 24.6944C8.48067 24.6944 8.32153 24.6123 8.1304 24.5127C7.00766 23.9221 6.01126 23.1955 5.35993 22.4917L5.26423 22.3919L5.74657 22.2784C7.4736 21.8744 8.94141 21.4384 10.3983 20.9027C10.605 20.83 10.7743 20.7705 10.7795 20.7705ZM16.0139 22.3375C16.0193 22.442 15.7495 23.3774 15.5269 24.0541C15.3415 24.6217 15.1824 25.0666 14.8906 25.8522C14.7637 26.1977 14.6527 26.4834 14.6472 26.4834C14.6418 26.4834 14.6103 26.4791 14.5783 26.4702C13.005 26.2248 11.5957 25.8841 10.2711 25.4301C9.90036 25.3028 9.37071 25.0984 9.33872 25.0757C9.32833 25.0666 9.64606 24.9395 10.0488 24.7898C12.4595 23.886 14.9598 22.8597 15.8184 22.4193C15.919 22.3647 15.998 22.3375 16.0139 22.3375ZM3.92958 22.6914C3.94052 22.7008 3.26704 23.5316 2.3245 24.6625C1.99556 25.0577 1.61438 25.5205 1.47138 25.693C1.30585 25.8931 1.14504 26.0959 0.989032 26.3015L0.766454 26.597L0.52829 26.4241C0.247469 26.2241 -0.239796 25.7976 -0.457179 25.5616C-0.912726 25.0757 -1.22034 24.5622 -1.34202 24.0944C-1.40054 23.8764 -1.40054 23.7677 -1.34749 23.7545C-0.408583 23.5622 0.531137 23.3729 1.47165 23.1864C2.10436 23.0615 2.73646 22.9344 3.36794 22.8051C3.67528 22.7416 3.92438 22.6914 3.92958 22.6914ZM4.60743 22.9141L4.77724 23.0774C5.54013 23.8087 6.3186 24.3489 7.26169 24.8212C7.43122 24.9032 7.55864 24.9756 7.54798 24.9803C7.51106 25.0028 4.27384 25.9881 2.77458 26.4334C2.26176 26.5891 1.74778 26.7419 1.23266 26.8919C1.22747 26.8919 1.17962 26.8645 1.12684 26.8328L1.03114 26.7738L1.18509 26.583C1.68274 25.9654 2.30809 25.289 3.66954 23.8811L4.60743 22.9141ZM8.83559 25.5067C8.84079 25.502 9.07348 25.5747 9.36005 25.6661C10.0488 25.8885 10.5941 26.0294 11.3252 26.1883C12.2259 26.3835 13.5294 26.5741 14.2981 26.6289C14.4145 26.6376 14.4777 26.6467 14.4566 26.6603C14.4195 26.6784 13.6404 26.9012 13.0684 27.0555C12.157 27.3009 9.37591 28.0047 7.10829 28.5632C6.84222 28.6299 6.57561 28.6951 6.30849 28.7587C6.25544 28.7676 6.08044 28.7263 6.08044 28.7083C6.08044 28.6994 6.20759 28.5588 6.36126 28.4043C7.12415 27.6231 7.88184 26.751 8.51239 25.9246C8.68739 25.6975 8.83559 25.5112 8.83559 25.5067ZM7.90263 25.5297H7.90317C7.90837 25.5344 7.53212 26.0516 6.87505 26.9418C6.5945 27.3187 6.28169 27.7462 6.17067 27.8957C6.06458 28.041 5.90517 28.2684 5.8152 28.3952L5.66208 28.6265L5.58278 28.6087C5.39165 28.563 4.05126 28.1589 3.69606 28.0363C3.27522 27.8928 2.86333 27.7307 2.46204 27.5507C2.03821 27.3552 1.50856 27.0646 1.55095 27.0555C1.56134 27.0508 2.28704 26.883 3.16122 26.6786C5.48134 26.1381 6.76895 25.825 7.61141 25.5979C7.76509 25.5569 7.89743 25.525 7.90263 25.5297ZM14.4988 26.8553H14.5045C14.5256 26.901 13.667 28.9443 13.3541 29.5891C13.2858 29.7344 13.259 29.7709 13.2218 29.7663C13.1316 29.7616 11.8872 29.6123 11.1295 29.5169C9.8104 29.3444 7.59528 29.013 7.03938 28.9037L6.91251 28.881L7.70165 28.7266C9.39696 28.3996 10.2129 28.2227 11.0395 28.0047C12.107 27.7249 13.1499 27.3802 14.1602 26.9734C14.3243 26.9102 14.4616 26.8602 14.4988 26.8558V26.8553Z" fill="#D99BFF"/>
</g>
<defs>
<clipPath id="clip0_94_16592">
<rect width="35" height="30" fill="white" transform="translate(0.224609 0.00390625)"/>
</clipPath>
</defs>
</svg>
