<svg width="31" height="31" viewBox="0 0 31 31" fill="none" xmlns="http://www.w3.org/2000/svg">
<g clip-path="url(#clip0_94_16597)">
<path d="M16.513 23.3895C16.4992 23.2184 16.491 23.1082 16.491 23.1082C16.491 23.1082 15.974 19.6186 15.3576 18.5768C15.2605 18.4111 15.3677 17.7345 15.6405 16.7299C15.7998 17.0039 16.4702 18.1812 16.6056 18.5604C16.7575 18.9879 16.7884 19.1105 16.7884 19.1105C16.7884 19.1105 16.4205 17.2162 15.8172 16.1112C15.9638 15.6186 16.1204 15.129 16.2869 14.6428C16.5149 15.0436 17.0634 16.016 17.1841 16.3537C17.208 16.4224 17.2291 16.481 17.2473 16.5352L17.2647 16.4381C17.1264 15.8512 16.8545 14.8303 16.4828 14.0752C17.3078 9.77953 20.1229 4.03828 23.0078 1.47656H4.18492C2.92234 1.47656 1.89062 2.50922 1.89062 3.77086V24.5295C1.89062 25.7911 2.92328 26.8237 4.18516 26.8237H16.5829C16.4892 25.6816 16.4657 24.5345 16.513 23.3895Z" fill="#0B7FCC"/>
<path d="M27.4008 0.796158C26.1117 -0.353685 24.5498 0.108737 23.01 1.47561C22.7721 1.68828 22.5442 1.91188 22.327 2.14569C19.6903 4.94085 17.2448 10.1198 16.485 14.0742C16.7808 14.6749 17.0123 15.4411 17.1633 16.0261C17.2026 16.1761 17.2383 16.3172 17.2668 16.4372C17.3336 16.7201 17.3693 16.905 17.3693 16.905C17.3693 16.905 17.3456 16.8152 17.2486 16.5342C17.2303 16.4803 17.2092 16.4208 17.1853 16.353C17.1728 16.3187 17.1594 16.2848 17.145 16.2513C16.9729 15.8522 16.4969 15.008 16.2881 14.6419C16.1095 15.1692 15.9513 15.6637 15.8184 16.1102C16.4226 17.2153 16.7908 19.1095 16.7908 19.1095C16.7908 19.1095 16.7587 18.9869 16.6075 18.5594C16.4721 18.1795 15.8011 17.0032 15.6426 16.7292C15.3698 17.7326 15.2618 18.4101 15.3597 18.5761C15.5493 18.8953 15.7286 19.4484 15.8871 20.058C16.2443 21.4331 16.4932 23.1077 16.4932 23.1077C16.4932 23.1077 16.5004 23.2176 16.5152 23.389C16.4678 24.5339 16.4911 25.6807 16.5848 26.8228C16.7029 28.2548 16.9254 29.486 17.2092 30.1444L17.4033 30.0391C16.9858 28.7419 16.8164 27.0408 16.8904 25.0807C17.0029 22.0823 17.6925 18.4678 18.9661 14.7005C21.1202 9.01217 24.1078 4.44936 26.8415 2.27038C24.3494 4.52085 20.9768 11.8057 19.9668 14.5036C18.8372 17.5249 18.0361 20.3592 17.5525 23.0756C18.3846 20.5296 21.0792 19.4358 21.0792 19.4358C21.0792 19.4358 22.4004 17.805 23.9449 15.4776C23.0191 15.6893 21.5004 16.05 20.9922 16.2633C20.2422 16.5783 20.039 16.6851 20.039 16.6851C20.039 16.6851 22.4697 15.2058 24.5554 14.5357C27.4228 10.0193 30.5465 3.60256 27.401 0.796393" fill="#003956"/>
</g>
<defs>
<clipPath id="clip0_94_16597">
<rect width="30" height="30" fill="white" transform="translate(0.224609 0.144531)"/>
</clipPath>
</defs>
</svg>
